PathFileType	4	(X/Y/Z)	C:/Users/beibeiliu/ov580/test_trc/User1\sequence.36_training_dense_left.trc
DataRate	CameraRate	NumFrames	NumMarkers	Units	OrigDataRate	OrigDataStartFrame	OrigNumFrames
120	120	13	19	mm	120	31	246
Frame#	Time	ThumbCMC			ThumbMCP			ThumbIP			ThumbTip			IndexMCP			IndexPIP			IndexTip			MiddleMCP			MiddlePIP			MiddleTip			RingMCP			RingPIP			RingTip			PinkyMCP			PinkyPIP			PinkyTip			BackHand1			BackHand2			BackHand3	
		X0	Y0	Z0	X1	Y1	Z1	X2	Y2	Z2	X3	Y3	Z3	X4	Y4	Z4	X5	Y5	Z5	X6	Y6	Z6	X7	Y7	Z7	X8	Y8	Z8	X9	Y9	Z9	X10	Y10	Z10	X11	Y11	Z11	X12	Y12	Z12	X13	Y13	Z13	X14	Y14	Z14	X15	Y15	Z15	X16	Y16	Z16	X17	Y17	Z17	X18	Y18	Z18	
30	0.25	-137.021	15.1813	39.5355	-118.079	25.097	11.3593	-111.93	25.3842	-12.0712	-103.927	25.8609	-38.8187	-139.79	5.50295	-43.1301	-112.706	-4.9261	-51.3073	-85.6857	-7.33249	-22.7639	-142.896	-25.5879	-41.3306	-105.274	-27.0617	-45.9157	-88.3087	-23.498	-13.1226	-135.096	-45.6688	-35.9762	-100.429	-44.865	-32.4169	-89.0302	-32.5498	-4.76335	-135.411	-64.7015	-18.3097	-108.514	-58.2446	-21.2147	-97.3331	-34.807	4.81705	-173.509	-42.7258	18.983	-171.882	-38.8042	56.4396	-172.314	-6.00104	34.4359	
31	0.258333	-137.297	16.6286	42.4008	-120.22	27.5245	12.1674	-118.368	27.4151	-12.3145	-110.204	31.4699	-39.0952	-140.556	1.62571	-42.3511	-111.276	-1.51679	-49.9965	-87.5415	-3.19617	-22.4707	-139.15	-23.5977	-43.8485	-104.482	-23.5269	-43.432	-87.6011	-17.7237	-9.09493	-135.512	-47.7634	-32.3956	-103.532	-42.8104	-33.4365	-89.5458	-33.1303	-2.81689	-136.477	-66.6474	-15.6605	-105.243	-57.8353	-19.8019	-97.2374	-37.9804	2.17179	-172.585	-42.1366	20.696	-169.897	-37.3273	57.6778	-170.503	-2.7146	33.642	
32	0.266667	-138.637	17.1144	41.6159	-124.973	27.1566	14.048	-122.856	31.9052	-13.7718	-118.968	30.1076	-38.5214	-143.698	4.43483	-38.5023	-110.47	-3.57128	-47.5	-89.2898	-5.74093	-19.3381	-141.422	-25.6942	-40.2215	-105.277	-25.2363	-43.4264	-89.8144	-17.9596	-8.02738	-135.885	-44.8031	-32.8082	-102.597	-43.4385	-31.7313	-91.1444	-33.9821	-1.35871	-134.691	-67.0835	-16.3196	-107.803	-53.9265	-19.427	-100.508	-36.0232	7.6378	-172.618	-43.4644	20.1297	-169.774	-37.504	57.8804	-170.263	-9.2118	35.5512	
33	0.275	-140.57	20.5915	42.4687	-129.17	29.3414	12.1973	-129.604	31.6945	-18.1812	-124.46	32.7159	-37.2821	-142.826	-1.13739	-38.9354	-110.284	-6.77001	-46.3753	-90.729	-5.47512	-16.6315	-138.609	-24.5618	-41.5963	-104.984	-25.0218	-41.6844	-89.8198	-18.6182	-7.87992	-132.661	-44.7199	-32.7544	-101.779	-42.1693	-28.7872	-92.7789	-32.5052	3.8918	-131.352	-66.8813	-18.5983	-106.94	-53.328	-16.8201	-98.0545	-37.203	8.77593	-172.788	-40.5645	19.4635	-172.162	-38.1026	53.5607	-173.657	-8.44749	33.6304	
34	0.283333	-142.333	18.1898	42.5525	-130.241	29.8772	13.2955	-131.849	31.1077	-13.7353	-129.977	33.0837	-37.7498	-143.759	0.0819137	-38.5968	-107.58	-6.44811	-43.2319	-92.0466	-6.5886	-16.7179	-137.846	-25.3411	-42.3339	-102.63	-25.1245	-38.6283	-91.0733	-16.7914	-1.95008	-133.162	-48.2127	-31.4671	-99.0905	-38.3489	-27.0631	-92.9985	-30.8279	6.24393	-134.166	-67.3199	-13.8015	-104.655	-52.7108	-15.0479	-101.903	-33.4224	10.3568	-172.568	-41.7389	19.8965	-171.742	-39.3006	57.8872	-174.008	-10.4825	33.4087	
35	0.291667	-142.219	19.5498	43.6188	-135.061	27.5111	11.2353	-136.129	29.3202	-13.011	-133.815	33.7967	-37.0895	-143.841	0.20917	-40.2136	-107.717	-2.08909	-43.6961	-93.5671	-3.50027	-15.7482	-137.287	-30.0427	-41.1503	-103.195	-23.1706	-37.8542	-89.961	-14.8182	-3.1732	-132.166	-49.2978	-30.3826	-97.9663	-39.2761	-24.9649	-92.8471	-29.7619	4.4455	-129.767	-66.8119	-17.1106	-103.593	-51.9757	-13.3816	-100.019	-36.3269	11.163	-173.404	-45.7711	18.8808	-173.392	-41.8163	56.6866	-172.858	-10.5597	35.305	
36	0.3	-144.631	19.3967	43.5882	-137.684	25.6947	12.4089	-139.198	29.402	-12.0565	-137.725	40.5254	-36.1884	-144.12	-5.13595	-38.9785	-113.026	-8.18183	-44.4714	-95.3136	-6.7997	-13.3986	-140.361	-29.2711	-39.0531	-106.064	-23.6679	-39.5345	-90.2846	-20.033	-3.43256	-134.546	-49.9855	-28.3094	-101.997	-41.6923	-26.279	-94.2331	-28.1497	8.16046	-130.221	-64.9209	-15.4354	-106.281	-52.038	-13.0621	-101.076	-35.5955	14.5316	-172.12	-48.6013	23.2957	-174.07	-41.9234	56.3815	-174.148	-11.8125	35.3478	
37	0.308333	-146.479	16.4898	42.0402	-140.921	25.1835	11.5292	-141.703	29.2944	-11.481	-141.315	39.783	-34.7026	-142.119	-6.59561	-41.0347	-110.896	-7.93728	-42.9215	-95.5849	-2.88943	-12.6174	-141.58	-32.4867	-36.5074	-105.784	-27.1911	-37.0636	-90.8808	-21.1449	-2.87596	-134.192	-52.5087	-27.401	-99.8373	-39.2176	-23.5088	-93.5462	-32.0317	10.8454	-134.101	-69.6779	-11.642	-105.021	-56.655	-12.1191	-101.285	-34.3181	9.61641	-172.689	-44.7029	25.1481	-173.856	-45.5514	58.956	-176.302	-9.14437	33.6241	
38	0.316667	-147.443	14.4517	43.5114	-140.333	27.9699	13.6819	-144.849	31.4662	-12.8111	-142.865	35.1128	-32.6479	-146.837	-5.22173	-38.0177	-111.906	-4.76547	-43.2355	-95.8759	-6.04218	-11.9186	-142.263	-28.0735	-37.0813	-105.508	-26.8365	-35.6286	-90.6081	-19.9311	1.28373	-133.722	-48.8179	-28.1786	-100.879	-41.1866	-23.2879	-93.7161	-31.5569	8.02878	-131.875	-66.8991	-12.2312	-104.677	-57.1407	-10.7871	-101.015	-35.1782	17.7882	-171.708	-48.5783	25.4404	-174.034	-40.4901	58.2127	-177.813	-9.12554	35.3903	
39	0.325	-147.803	13.371	44.33	-141.187	22.6797	16.5277	-148.145	28.945	-14.0062	-149.6	36.4965	-37.0084	-143.549	-6.64745	-40.1003	-115.081	-7.89249	-43.8425	-96.1936	-4.67433	-10.8338	-139.406	-33.2968	-37.4574	-104.802	-27.5744	-33.2614	-90.9799	-22.3242	-1.5491	-135.195	-48.6808	-26.9872	-101.226	-42.128	-20.5976	-94.5485	-33.3905	12.5005	-130.671	-67.9217	-12.5195	-105.206	-55.6174	-8.61492	-104.713	-37.0064	18.9873	-174.975	-46.008	25.0609	-173.548	-43.5766	59.272	-176.979	-8.67212	37.8633	
40	0.333333	-148.124	18.4796	42.5207	-144.408	23.9788	14.0941	-150.928	29.5418	-12.6339	-151.758	37.821	-34.0321	-144.778	-8.10439	-40.4599	-113.99	-7.8103	-41.868	-97.4621	-8.1891	-11.6424	-140.926	-32.6024	-36.7658	-107.08	-28.2156	-35.0713	-91.697	-16.9581	-1.25875	-134.88	-52.0093	-26.5248	-102.203	-42.7674	-22.1955	-96.6703	-30.4807	11.7702	-135.24	-66.9882	-11.7197	-106.13	-57.6876	-9.21696	-104.392	-35.264	15.9837	-174.662	-50.7124	22.785	-174.264	-42.9305	59.8518	-178.339	-12.0818	37.795	
41	0.341667	-148.797	18.4198	43.7653	-141.802	23.2953	16.9201	-150.974	30.1412	-14.8166	-153.025	34.5449	-34.5114	-147.206	-5.47518	-38.2211	-116.257	-8.57644	-43.8376	-97.9944	-9.15465	-13.192	-140.658	-32.9807	-37.5645	-106.637	-27.5823	-35.4797	-91.6009	-22.5191	0.327516	-135.85	-53.4744	-26.3804	-103.576	-41.3139	-22.5017	-97.1353	-29.8305	9.10351	-132.786	-70.6881	-11.8373	-106.307	-56.3551	-8.67006	-104.384	-36.9358	20.2403	-174.581	-48.1991	24.0914	-173.918	-40.1843	59.1479	-177.297	-9.46093	38.814	
42	0.35	-148.572	15.2891	42.038	-143.243	27.483	15.7832	-149.814	25.0992	-13.9529	-149.447	32.0402	-33.2187	-147.862	-3.18217	-38.4508	-112.96	-7.92122	-41.5581	-96.6065	-5.37821	-9.41419	-139.405	-32.1089	-37.4016	-105.819	-29.4851	-34.0757	-91.655	-17.5679	2.13518	-135.83	-52.9173	-25.231	-101.285	-45.5998	-18.9577	-96.7227	-31.6453	10.3152	-133.173	-70.5312	-10.7802	-106.821	-55.6995	-8.59038	-105.463	-35.664	17.1838	-174.923	-47.2373	26.7446	-173.727	-41.8268	61.0218	-177.025	-10.901	39.1748	
